<svg width="24" height="24" viewBox="0 0 24 24" fill="none" xmlns="http://www.w3.org/2000/svg">
  <rect width="24" height="24" rx="4" fill="#1C2526"/>
  <path d="M12 8C9.79 8 8 9.79 8 12C8 14.21 9.79 16 12 16C14.21 16 16 14.21 16 12C16 9.79 14.21 8 12 8ZM12 14C10.9 14 10 13.1 10 12C10 10.9 10.9 10 12 10C13.1 10 14 10.9 14 12C14 13.1 13.1 14 12 14Z" fill="#8B0000"/>
  <path d="M12 4V2M12 22V20M4 12H2M22 12H20M5.64 5.64L4.22 4.22M18.36 18.36L19.78 19.78M5.64 18.36L4.22 19.78M18.36 5.64L19.78 4.22" stroke="#8B0000" stroke-width="2" stroke-linecap="round"/>
</svg>